<svg width="138" height="31" viewBox="0 0 138 31" fill="none" xmlns="http://www.w3.org/2000/svg">
<path d="M95.0779 16.8786C94.8019 16.8943 94.5255 16.8575 94.2651 16.7702C94.0047 16.683 93.7658 16.5472 93.5627 16.371C93.3596 16.1948 93.1965 15.9818 93.0832 15.7448C92.97 15.5078 92.9088 15.2517 92.9036 14.992C92.9036 14.5439 92.9036 13.1682 95.0779 13.1682C95.4775 13.1515 95.8742 13.2389 96.2243 13.4207C96.5743 13.6026 96.864 13.8719 97.0614 14.1989L99.2453 12.1465C98.7453 11.5636 98.1095 11.0964 97.3869 10.781C96.6644 10.4655 95.8744 10.3103 95.0779 10.3272C91.9642 10.3272 89.8758 12.2003 89.8758 14.992C89.8734 15.6415 90.0163 16.2843 90.2954 16.8786H88.1497C87.7425 16.8786 87.3519 16.7265 87.064 16.4559C86.7761 16.1853 86.6143 15.8183 86.6143 15.4356V10.8828H83.5865V20.3335C83.5865 20.5712 83.486 20.7991 83.3072 20.9672C83.1283 21.1353 82.8858 21.2297 82.6329 21.2297H81.2453V24.0707H82.6329C83.6892 24.0707 84.7024 23.6767 85.4499 22.9751C86.1973 22.2735 86.6178 21.3218 86.6191 20.329V19.4686C87.1115 19.636 87.6308 19.7224 88.1544 19.7241H99.4789V16.8786H95.0779Z" fill="#333333"/>
<path d="M32.6238 5.4021H29.596V19.6789H32.6238V5.4021Z" fill="#333333"/>
<path d="M76.7684 16.8811H66.2354V12.1804H63.2124V17.271C63.2137 17.9219 63.4894 18.5458 63.9791 19.0061C64.4689 19.4663 65.1328 19.7254 65.8254 19.7266H77.1928C77.8854 19.7254 78.5493 19.4663 79.0391 19.0061C79.5288 18.5458 79.8045 17.9219 79.8058 17.271V10.8854H76.7684V16.8811Z" fill="#333333"/>
<path d="M52.1973 16.8811H47.3241V10.8854H44.3011V16.8811H39.4328V10.8854H36.4049V20.336C36.4049 20.5737 36.3045 20.8017 36.1256 20.9698C35.9468 21.1378 35.7042 21.2323 35.4513 21.2323H34.059V24.0733H35.4465C36.5021 24.0733 37.5146 23.6798 38.2619 22.9792C39.0091 22.2786 39.4302 21.328 39.4328 20.336V19.7266H44.7159C45.0953 19.726 45.4698 19.6464 45.8126 19.4936C46.1569 19.6469 46.5331 19.7265 46.9141 19.7266H52.6073C52.9505 19.7266 53.2902 19.6631 53.6073 19.5397C53.9243 19.4163 54.2123 19.2354 54.455 19.0074C54.6976 18.7793 54.8901 18.5086 55.0214 18.2107C55.1527 17.9128 55.2203 17.5934 55.2203 17.271V10.8854H52.1973V16.8811Z" fill="#333333"/>
<path d="M23.84 16.8811H18.5949C18.5949 16.8811 17.1645 16.8184 14.3035 15.5861L13.0161 18.1761C14.3623 18.7731 15.772 19.2342 17.2217 19.5518C17.5183 19.9304 17.7101 20.3724 17.7796 20.8379C17.1645 21.3622 13.903 21.2502 12.1388 21.1919L10.7083 21.1471C9.5401 21.1202 8.80102 20.8558 8.48155 20.3629C7.81877 19.3009 8.70089 16.9976 9.23493 16.0521L7.89506 15.3844L6.55997 14.7167C6.31202 15.1648 4.17586 19.0858 5.86857 21.7969C6.4646 22.7603 7.77586 23.9209 10.6368 23.9881L12.0339 24.033C12.9112 24.0643 13.7743 24.0912 14.6039 24.0912C17.2598 24.0912 19.5152 23.7865 20.445 22.2136C20.6513 21.8317 20.7732 21.4144 20.8036 20.9871C20.8339 20.5597 20.7719 20.1309 20.6214 19.7266H24.2453C24.9383 19.7266 25.6029 19.4679 26.0929 19.0074C26.5829 18.5468 26.8582 17.9222 26.8582 17.271V10.8854H23.84V16.8811Z" fill="#333333"/>
<path d="M47.4998 21.3235H47.4807C46.7487 21.3235 46.1552 21.8802 46.1552 22.567C46.1552 23.2538 46.7487 23.8105 47.4807 23.8105H47.4998C48.2319 23.8105 48.8254 23.2538 48.8254 22.567C48.8254 21.8802 48.2319 21.3235 47.4998 21.3235Z" fill="#333333"/>
<path d="M71.5949 21.3235H71.5758C70.8437 21.3235 70.2503 21.8802 70.2503 22.567C70.2503 23.2538 70.8437 23.8105 71.5758 23.8105H71.5949C72.327 23.8105 72.9205 23.2538 72.9205 22.567C72.9205 21.8802 72.327 21.3235 71.5949 21.3235Z" fill="#333333"/>
<path d="M44.0971 21.3235H44.0781C43.346 21.3235 42.7525 21.8802 42.7525 22.567C42.7525 23.2538 43.346 23.8105 44.0781 23.8105H44.0971C44.8292 23.8105 45.4227 23.2538 45.4227 22.567C45.4227 21.8802 44.8292 21.3235 44.0971 21.3235Z" fill="#333333"/>
<path d="M24.966 21.3235H24.9469C24.2148 21.3235 23.6214 21.8802 23.6214 22.567C23.6214 23.2538 24.2148 23.8105 24.9469 23.8105H24.966C25.6981 23.8105 26.2916 23.2538 26.2916 22.567C26.2916 21.8802 25.6981 21.3235 24.966 21.3235Z" fill="#333333"/>
<path d="M1.34463 16.8826H1.32556C0.593474 16.8826 0 17.4393 0 18.1261C0 18.8128 0.593474 19.3696 1.32556 19.3696H1.34463C2.07672 19.3696 2.6702 18.8128 2.6702 18.1261C2.6702 17.4393 2.07672 16.8826 1.34463 16.8826Z" fill="#EE7B73"/>
<path d="M14.9768 25.2307H14.9577C14.2256 25.2307 13.6322 25.7874 13.6322 26.4742C13.6322 27.161 14.2256 27.7177 14.9577 27.7177H14.9768C15.7089 27.7177 16.3024 27.161 16.3024 26.4742C16.3024 25.7874 15.7089 25.2307 14.9768 25.2307Z" fill="#333333"/>
<path d="M11.5712 25.2307H11.5521C10.82 25.2307 10.2266 25.7874 10.2266 26.4742C10.2266 27.161 10.82 27.7177 11.5521 27.7177H11.5712C12.3033 27.7177 12.8968 27.161 12.8968 26.4742C12.8968 25.7874 12.3033 25.2307 11.5712 25.2307Z" fill="#333333"/>
<path d="M55.3256 6.23584H55.3065C54.5745 6.23584 53.981 6.79258 53.981 7.47935C53.981 8.16612 54.5745 8.72286 55.3065 8.72286H55.3256C56.0577 8.72286 56.6512 8.16612 56.6512 7.47935C56.6512 6.79258 56.0577 6.23584 55.3256 6.23584Z" fill="#333333"/>
<path d="M51.92 6.23584H51.9009C51.1689 6.23584 50.5754 6.79258 50.5754 7.47935C50.5754 8.16612 51.1689 8.72286 51.9009 8.72286H51.92C52.6521 8.72286 53.2456 8.16612 53.2456 7.47935C53.2456 6.79258 52.6521 6.23584 51.92 6.23584Z" fill="#333333"/>
<path d="M53.6233 3.27576H53.6042C52.8721 3.27576 52.2787 3.83249 52.2787 4.51926C52.2787 5.20604 52.8721 5.76277 53.6042 5.76277H53.6233C54.3554 5.76277 54.9489 5.20604 54.9489 4.51926C54.9489 3.83249 54.3554 3.27576 53.6233 3.27576Z" fill="#333333"/>
<path d="M135.169 7.73291C129.995 2.40038 129.146 1.90746 129.146 1.90746C129.146 1.90746 124.965 -1.39512 120.888 2.14496C118.408 4.30038 113.449 5.04872 113.449 5.04872C113.449 5.04872 106.774 6.5006 106.64 15.0595C106.507 23.6184 110.078 29.2064 120.158 30.0354C126.271 30.5283 129.265 31.5455 133.743 26.4819C134.268 25.5234 134.67 24.5095 134.94 23.4616C135.126 22.2741 136.847 19.4286 136.847 19.4286C136.847 19.4286 140.337 13.0744 135.169 7.73291ZM122.294 26.8045C120.025 26.8045 110.536 24.564 110.536 17.0626C110.536 11.4926 116.62 6.12419 122.294 6.12419C128.312 6.12419 133.07 9.98242 133.07 16.3635C133.085 22.1307 128.264 26.8045 122.309 26.8045H122.294Z" fill="url(#paint0_linear_1_56)"/>
<defs>
<linearGradient id="paint0_linear_1_56" x1="111.084" y1="5.91806" x2="132.038" y2="28.2097" gradientUnits="userSpaceOnUse">
<stop stop-color="#85C48D"/>
<stop offset="0.31" stop-color="#6DC09C"/>
<stop offset="0.95" stop-color="#30B7C4"/>
<stop offset="1" stop-color="#2BB6C7"/>
</linearGradient>
</defs>
</svg>
