<svg width="107" height="87" viewBox="0 0 107 87" fill="none" xmlns="http://www.w3.org/2000/svg">
<path d="M71.6852 2.13153C75.5715 4.18717 79.3434 7.86026 84.3761 14.1123C88.7563 16.6657 91.8879 15.2221 99.9372 17.6015C107.803 21.0594 106.615 29.5013 106.819 34.1715C107.152 41.7958 97.9348 55.7067 93.1285 63.6144C88.3221 71.5221 78.7289 71.5125 62.5828 74.0833C49.1357 74.8938 45.8673 78.3252 41.5988 81.4305C33.3922 87.4007 21.3143 87.7005 12.9748 81.9173C7.29857 77.981 6.11774 72.3201 5.45814 67.4926C4.81544 62.789 3.37145 58.2443 2.14961 53.6569C1.18978 50.0532 0.342883 45.8709 0.532209 41.6442C1.38477 22.6114 27.6215 29.673 39.8629 15.0743C46.7719 6.83475 62.18 -2.89612 71.6852 2.13153Z" fill="#FFF734"/>
</svg>
