<svg width="32" height="33" viewBox="0 0 32 33" fill="none" xmlns="http://www.w3.org/2000/svg">
<path d="M0 16C0 24.8366 7.16344 32 16 32C24.8366 32 32 24.8366 32 16C32 7.16344 24.8366 0 16 0C7.16344 0 0 7.16344 0 16Z" fill="#4E7E76"/>
<path d="M16.0002 8.5C18.2002 8.5 18.5002 8.5 19.4002 8.5C20.2002 8.5 20.6002 8.7 20.9002 8.8C21.3002 9 21.6002 9.1 21.9002 9.4C22.2002 9.7 22.4002 10 22.5002 10.4C22.6002 10.7 22.7002 11.1 22.8002 11.9C22.8002 12.8 22.8002 13 22.8002 15.3C22.8002 17.6 22.8002 17.8 22.8002 18.7C22.8002 19.5 22.6002 19.9 22.5002 20.2C22.3002 20.6 22.2002 20.9 21.9002 21.2C21.6002 21.5 21.3002 21.7 20.9002 21.8C20.6002 21.9 20.2002 22 19.4002 22.1C18.5002 22.1 18.3002 22.1 16.0002 22.1C13.7002 22.1 13.5002 22.1 12.6002 22.1C11.8002 22.1 11.4002 21.9 11.1002 21.8C10.7002 21.6 10.4002 21.5 10.1002 21.2C9.8002 20.9 9.6002 20.6 9.5002 20.2C9.4002 19.9 9.3002 19.5 9.2002 18.7C9.2002 17.8 9.2002 17.6 9.2002 15.3C9.2002 13 9.2002 12.8 9.2002 11.9C9.2002 11.1 9.4002 10.7 9.5002 10.4C9.7002 10 9.8002 9.7 10.1002 9.4C10.4002 9.1 10.7002 8.9 11.1002 8.8C11.4002 8.7 11.8002 8.6 12.6002 8.5C13.5002 8.5 13.8002 8.5 16.0002 8.5ZM16.0002 7C13.7002 7 13.5002 7 12.6002 7C11.7002 7 11.1002 7.2 10.6002 7.4C10.1002 7.6 9.6002 7.9 9.1002 8.4C8.6002 8.9 8.4002 9.3 8.1002 9.9C7.9002 10.4 7.8002 11 7.7002 11.9C7.7002 12.8 7.7002 13.1 7.7002 15.3C7.7002 17.6 7.7002 17.8 7.7002 18.7C7.7002 19.6 7.9002 20.2 8.1002 20.7C8.3002 21.2 8.6002 21.7 9.1002 22.2C9.6002 22.7 10.0002 22.9 10.6002 23.2C11.1002 23.4 11.7002 23.5 12.6002 23.6C13.5002 23.6 13.8002 23.6 16.0002 23.6C18.2002 23.6 18.5002 23.6 19.4002 23.6C20.3002 23.6 20.9002 23.4 21.4002 23.2C21.9002 23 22.4002 22.7 22.9002 22.2C23.4002 21.7 23.6002 21.3 23.9002 20.7C24.1002 20.2 24.2002 19.6 24.3002 18.7C24.3002 17.8 24.3002 17.5 24.3002 15.3C24.3002 13.1 24.3002 12.8 24.3002 11.9C24.3002 11 24.1002 10.4 23.9002 9.9C23.7002 9.4 23.4002 8.9 22.9002 8.4C22.4002 7.9 22.0002 7.7 21.4002 7.4C20.9002 7.2 20.3002 7.1 19.4002 7C18.5002 7 18.3002 7 16.0002 7Z" fill="white"/>
<path d="M16.0002 11C13.6002 11 11.7002 12.9 11.7002 15.3C11.7002 17.7 13.6002 19.6 16.0002 19.6C18.4002 19.6 20.3002 17.7 20.3002 15.3C20.3002 12.9 18.4002 11 16.0002 11ZM16.0002 18.1C14.5002 18.1 13.2002 16.9 13.2002 15.3C13.2002 13.8 14.4002 12.5 16.0002 12.5C17.5002 12.5 18.8002 13.7 18.8002 15.3C18.8002 16.8 17.5002 18.1 16.0002 18.1Z" fill="white"/>
<path d="M20.4002 11.9C20.9525 11.9 21.4002 11.4523 21.4002 10.9C21.4002 10.3477 20.9525 9.9 20.4002 9.9C19.8479 9.9 19.4002 10.3477 19.4002 10.9C19.4002 11.4523 19.8479 11.9 20.4002 11.9Z" fill="white"/>
</svg>
